<svg width="96" height="96" viewBox="0 0 96 96" fill="none" xmlns="http://www.w3.org/2000/svg">
<path d="M16 48C16 67.882 32.118 84 52 84C71.882 84 88 67.882 88 48H52H16Z" fill="#D35230"/>
<path d="M52 12V48H88C88 28.118 71.882 12 52 12Z" fill="#FF8F6B"/>
<path d="M52 12C32.118 12 16 28.118 16 48H52V12Z" fill="#ED6C47"/>
<path opacity="0.05" d="M52 33.362C52 29.296 48.704 26 44.638 26H23.548C18.834 32.088 16 39.704 16 48C16 58.232 20.29 67.446 27.142 74H44.636C48.704 74 52 70.704 52 66.638V33.362Z" fill="black"/>
<path opacity="0.07" d="M44.426 26.666H23.05C18.64 32.642 16 40.004 16 48C16 57.234 19.506 65.628 25.222 72H44.426C47.874 72 50.668 69.206 50.668 65.758V32.908C50.666 29.462 47.872 26.666 44.426 26.666Z" fill="black"/>
<path opacity="0.09" d="M44.212 27.334H22.552C18.436 33.186 16 40.302 16 48C16 56.296 18.834 63.912 23.548 70H44.212C47.04 70 49.332 67.708 49.332 64.88V32.454C49.334 29.626 47.04 27.334 44.212 27.334Z" fill="black"/>
<path d="M44 68H12C9.79 68 8 66.21 8 64V32C8 29.79 9.79 28 12 28H44C46.21 28 48 29.79 48 32V64C48 66.21 46.21 68 44 68Z" fill="url(#paint0_linear_43_57)"/>
<path d="M29.346 38.024H20V58.024H24.048V50.982H28.6C32.352 50.982 35.394 47.94 35.394 44.188V44.072C35.394 40.732 32.686 38.024 29.346 38.024ZM31.14 44.716C31.14 46.434 29.746 47.828 28.028 47.828H24.048V41.178H28.028C29.746 41.178 31.14 42.572 31.14 44.29V44.716Z" fill="white"/>
<defs>
<linearGradient id="paint0_linear_43_57" x1="9.172" y1="29.172" x2="45.54" y2="65.54" gradientUnits="userSpaceOnUse">
<stop stop-color="#CA4E2A"/>
<stop offset="1" stop-color="#B63016"/>
</linearGradient>
</defs>
</svg>
