<svg width="96" height="96" viewBox="0 0 96 96" fill="none" xmlns="http://www.w3.org/2000/svg">
<path d="M24 66.108V80C24 82.21 25.79 84 28 84H84C86.21 84 88 82.21 88 80V66.108H24Z" fill="url(#paint0_linear_43_66)"/>
<path d="M84 12H28C25.79 12 24 13.79 24 16V30.006H88V16C88 13.79 86.21 12 84 12Z" fill="url(#paint1_linear_43_66)"/>
<path d="M24 48.01H88V66.11H24V48.01Z" fill="url(#paint2_linear_43_66)"/>
<path d="M24 30.006H88V48.01H24V30.006Z" fill="url(#paint3_linear_43_66)"/>
<path opacity="0.05" d="M44.638 26H24V74H44.638C48.704 74 52 70.704 52 66.638V33.362C52 29.296 48.704 26 44.638 26Z" fill="black"/>
<path opacity="0.07" d="M44.426 72H24V26.666H44.426C47.874 26.666 50.668 29.46 50.668 32.908V65.758C50.666 69.206 47.872 72 44.426 72Z" fill="black"/>
<path opacity="0.09" d="M44.212 70H24V27.334H44.212C47.04 27.334 49.332 29.626 49.332 32.454V64.88C49.334 67.708 47.04 70 44.212 70Z" fill="black"/>
<path d="M44 68H12C9.79 68 8 66.21 8 64V32C8 29.79 9.79 28 12 28H44C46.21 28 48 29.79 48 32V64C48 66.21 46.21 68 44 68Z" fill="url(#paint4_linear_43_66)"/>
<path d="M36.806 38L33.714 52.528L30.288 38H25.914L22.38 52.978L19.194 38H15.282L19.97 58H24.674L28.1 42.622L31.528 58H36.03L40.718 38H36.806Z" fill="white"/>
<defs>
<linearGradient id="paint0_linear_43_66" x1="56" y1="84" x2="56" y2="66.108" gradientUnits="userSpaceOnUse">
<stop stop-color="#11408A"/>
<stop offset="1" stop-color="#103F8F"/>
</linearGradient>
<linearGradient id="paint1_linear_43_66" x1="56" y1="29.932" x2="56" y2="12.9" gradientUnits="userSpaceOnUse">
<stop stop-color="#42A3F2"/>
<stop offset="1" stop-color="#42A4EB"/>
</linearGradient>
<linearGradient id="paint2_linear_43_66" x1="24" y1="57.06" x2="88" y2="57.06" gradientUnits="userSpaceOnUse">
<stop stop-color="#1D59B3"/>
<stop offset="1" stop-color="#195BBC"/>
</linearGradient>
<linearGradient id="paint3_linear_43_66" x1="56" y1="-30.92" x2="56" y2="-31.042" gradientUnits="userSpaceOnUse">
<stop stop-color="#3079D6"/>
<stop offset="1" stop-color="#297CD2"/>
</linearGradient>
<linearGradient id="paint4_linear_43_66" x1="9.488" y1="29.488" x2="46.988" y2="66.986" gradientUnits="userSpaceOnUse">
<stop stop-color="#256AC2"/>
<stop offset="1" stop-color="#1247AD"/>
</linearGradient>
</defs>
</svg>
